<svg xmlns="http://www.w3.org/2000/svg" xmlns:xlink="http://www.w3.org/1999/xlink" width="500" zoomAndPan="magnify" viewBox="0 0 375 374.999991" height="500" preserveAspectRatio="xMidYMid meet" version="1.0"><defs><g/><clipPath id="8244821e89"><path d="M 97 203 L 141.75 203 L 141.75 235 L 97 235 Z M 97 203 " clip-rule="nonzero"/></clipPath><clipPath id="fa6bffd9e6"><path d="M 49 129.867188 L 141.75 129.867188 L 141.75 171 L 49 171 Z M 49 129.867188 " clip-rule="nonzero"/></clipPath><clipPath id="80f843c14b"><path d="M 37.5 155 L 71 155 L 71 197 L 37.5 197 Z M 37.5 155 " clip-rule="nonzero"/></clipPath><clipPath id="116fef3825"><path d="M 38 198 L 115 198 L 115 245.367188 L 38 245.367188 Z M 38 198 " clip-rule="nonzero"/></clipPath></defs><g clip-path="url(#8244821e89)"><path fill="#051d40" d="M 121.691406 208.96875 C 121.691406 210.292969 120.617188 211.367188 119.296875 211.367188 C 117.972656 211.367188 116.894531 210.292969 116.894531 208.96875 C 116.894531 207.648438 117.972656 206.570312 119.296875 206.570312 C 120.617188 206.570312 121.691406 207.648438 121.691406 208.96875 Z M 142.082031 208.96875 C 142.082031 206.820312 140.339844 205.082031 138.191406 205.082031 C 136.429688 205.082031 134.941406 206.253906 134.464844 207.859375 L 124.351562 207.859375 C 123.84375 205.535156 121.773438 203.792969 119.296875 203.792969 C 116.433594 203.792969 114.117188 206.109375 114.117188 208.96875 C 114.117188 210.285156 114.609375 211.484375 115.414062 212.394531 C 112.507812 215.109375 109.183594 217.269531 105.582031 218.804688 C 105.140625 217.144531 103.628906 215.917969 101.828125 215.917969 C 99.679688 215.917969 97.9375 217.660156 97.9375 219.808594 C 97.9375 221.957031 99.679688 223.695312 101.828125 223.695312 C 103.460938 223.695312 104.851562 222.691406 105.429688 221.265625 C 109.796875 219.5625 113.804688 217.015625 117.246094 213.726562 C 117.542969 213.855469 117.859375 213.957031 118.183594 214.027344 L 118.183594 224.5625 C 117.097656 224.800781 116.140625 225.378906 115.425781 226.179688 L 107.753906 221.882812 L 106.667969 223.824219 L 114.339844 228.117188 C 114.195312 228.59375 114.117188 229.097656 114.117188 229.621094 C 114.117188 232.480469 116.433594 234.796875 119.296875 234.796875 C 122.152344 234.796875 124.472656 232.480469 124.472656 229.621094 C 124.472656 227.140625 122.730469 225.070312 120.40625 224.5625 L 120.40625 214.027344 C 122.34375 213.601562 123.875 212.09375 124.332031 210.164062 L 134.488281 210.164062 C 134.757812 211.003906 135.304688 211.714844 136.019531 212.199219 C 133.121094 217.308594 129.378906 221.804688 125.019531 225.546875 C 125.46875 226.175781 125.816406 226.878906 126.039062 227.636719 C 130.957031 223.496094 135.074219 218.492188 138.195312 212.859375 C 140.34375 212.859375 142.082031 211.117188 142.082031 208.96875 " fill-opacity="1" fill-rule="nonzero"/></g><g clip-path="url(#fa6bffd9e6)"><path fill="#ff4900" d="M 139.300781 164.871094 C 139.300781 166.191406 138.226562 167.269531 136.902344 167.269531 C 135.578125 167.269531 134.503906 166.191406 134.503906 164.871094 C 134.503906 163.546875 135.578125 162.472656 136.902344 162.472656 C 138.226562 162.472656 139.300781 163.546875 139.300781 164.871094 Z M 117.386719 145.511719 C 115.523438 145.511719 114.003906 143.992188 114.003906 142.128906 C 114.003906 140.265625 115.523438 138.75 117.386719 138.75 C 119.25 138.75 120.765625 140.265625 120.765625 142.128906 C 120.765625 143.992188 119.25 145.511719 117.386719 145.511719 Z M 86.996094 135.042969 C 86.996094 136.367188 85.921875 137.441406 84.597656 137.441406 C 83.277344 137.441406 82.199219 136.367188 82.199219 135.042969 C 82.199219 133.722656 83.277344 132.644531 84.597656 132.644531 C 85.921875 132.644531 86.996094 133.722656 86.996094 135.042969 Z M 80.894531 154.960938 C 80.894531 156.828125 79.378906 158.34375 77.511719 158.34375 C 75.648438 158.34375 74.132812 156.828125 74.132812 154.960938 C 74.132812 153.097656 75.648438 151.582031 77.511719 151.582031 C 79.378906 151.582031 80.894531 153.097656 80.894531 154.960938 Z M 142.082031 164.871094 C 142.082031 162.011719 139.761719 159.691406 136.902344 159.691406 C 134.136719 159.691406 131.875 161.863281 131.730469 164.59375 L 122.855469 164.59375 C 122.359375 163.464844 121.34375 162.617188 120.105469 162.351562 L 119.050781 149.015625 C 119.921875 148.808594 120.730469 148.4375 121.445312 147.9375 L 130.925781 157.765625 L 132.523438 156.222656 L 123.042969 146.394531 C 123.941406 145.207031 124.472656 143.730469 124.472656 142.128906 C 124.472656 138.214844 121.300781 135.042969 117.386719 135.042969 C 114.847656 135.042969 112.617188 136.382812 111.367188 138.390625 C 105.292969 136.003906 98.792969 134.769531 92.164062 134.769531 C 91.363281 134.769531 90.566406 134.785156 89.769531 134.820312 C 89.652344 132.066406 87.382812 129.867188 84.597656 129.867188 C 81.738281 129.867188 79.421875 132.183594 79.421875 135.042969 C 79.421875 135.46875 79.472656 135.882812 79.570312 136.277344 C 71.542969 138.242188 64.09375 142.082031 57.753906 147.578125 C 58.226562 148.191406 58.578125 148.90625 58.769531 149.679688 C 64.902344 144.242188 72.363281 140.273438 80.597656 138.332031 C 80.953125 138.765625 81.378906 139.136719 81.855469 139.433594 L 78.8125 148 C 78.390625 147.921875 77.957031 147.878906 77.511719 147.878906 C 74.367188 147.878906 71.703125 149.925781 70.777344 152.757812 L 57.050781 150.5625 C 56.800781 148.65625 55.175781 147.183594 53.199219 147.183594 C 51.050781 147.183594 49.308594 148.925781 49.308594 151.074219 C 49.308594 153.222656 51.050781 154.960938 53.199219 154.960938 C 54.742188 154.960938 56.074219 154.0625 56.703125 152.757812 L 70.425781 154.953125 L 70.425781 154.960938 C 70.425781 158.875 73.601562 162.046875 77.511719 162.046875 C 81.425781 162.046875 84.597656 158.875 84.597656 154.960938 C 84.597656 152.277344 83.105469 149.945312 80.90625 148.742188 L 83.949219 140.179688 C 84.164062 140.207031 84.378906 140.222656 84.597656 140.222656 C 85.753906 140.222656 86.820312 139.84375 87.679688 139.203125 L 98.59375 148.714844 L 100.054688 147.039062 L 89.140625 137.527344 C 89.222656 137.378906 89.296875 137.226562 89.363281 137.070312 C 90.289062 137.019531 91.222656 136.992188 92.164062 136.992188 C 98.539062 136.992188 104.742188 138.214844 110.496094 140.472656 C 110.371094 141.003906 110.300781 141.558594 110.300781 142.128906 C 110.300781 145.855469 113.179688 148.910156 116.832031 149.191406 L 117.816406 161.59375 C 114.972656 158.753906 111.71875 156.441406 108.183594 154.703125 C 108.203125 154.542969 108.21875 154.382812 108.21875 154.214844 C 108.21875 152.070312 106.476562 150.328125 104.328125 150.328125 C 102.960938 150.328125 101.761719 151.03125 101.066406 152.097656 C 98.195312 151.378906 95.207031 151.007812 92.164062 151.007812 C 89.984375 151.007812 87.851562 151.199219 85.78125 151.570312 C 86.058594 152.25 86.257812 152.972656 86.363281 153.726562 C 88.25 153.402344 90.1875 153.230469 92.164062 153.230469 C 94.992188 153.230469 97.765625 153.574219 100.4375 154.234375 C 100.449219 156.375 102.1875 158.105469 104.328125 158.105469 C 105.511719 158.105469 106.570312 157.574219 107.285156 156.742188 C 110.683594 158.421875 113.804688 160.671875 116.515625 163.4375 C 115.828125 164.140625 115.402344 165.097656 115.402344 166.15625 C 115.402344 168.304688 117.144531 170.046875 119.292969 170.046875 C 121.21875 170.046875 122.808594 168.652344 123.125 166.820312 L 132.105469 166.820312 C 132.875 168.710938 134.734375 170.046875 136.902344 170.046875 C 139.761719 170.046875 142.082031 167.730469 142.082031 164.871094 " fill-opacity="1" fill-rule="nonzero"/></g><g clip-path="url(#80f843c14b)"><path fill="#ff4900" d="M 43.457031 173.9375 C 43.457031 175.058594 42.542969 175.976562 41.417969 175.976562 C 40.296875 175.976562 39.382812 175.058594 39.382812 173.9375 C 39.382812 172.8125 40.296875 171.898438 41.417969 171.898438 C 42.542969 171.898438 43.457031 172.8125 43.457031 173.9375 Z M 56.394531 186.039062 C 58.257812 186.039062 59.777344 187.554688 59.777344 189.417969 C 59.777344 191.28125 58.257812 192.796875 56.394531 192.796875 C 54.53125 192.796875 53.015625 191.28125 53.015625 189.417969 C 53.015625 187.554688 54.53125 186.039062 56.394531 186.039062 Z M 70.75 160.796875 C 70.265625 160.234375 69.847656 159.613281 69.511719 158.941406 C 67.105469 160.863281 64.945312 163.085938 63.09375 165.550781 C 62.46875 165.121094 61.710938 164.871094 60.898438 164.871094 C 58.789062 164.871094 57.078125 166.546875 57.011719 168.640625 L 44.730469 171.90625 C 44.625 171.730469 44.507812 171.566406 44.375 171.410156 C 46.167969 166.0625 48.832031 161.109375 52.203125 156.726562 C 51.410156 156.585938 50.675781 156.285156 50.03125 155.855469 C 46.738281 160.238281 44.1875 165.0625 42.421875 170.183594 C 42.101562 170.097656 41.765625 170.046875 41.417969 170.046875 C 39.269531 170.046875 37.527344 171.789062 37.527344 173.9375 C 37.527344 175.699219 38.699219 177.183594 40.308594 177.664062 L 40.308594 196.503906 L 42.53125 196.503906 L 42.53125 177.664062 C 44.101562 177.195312 45.25 175.765625 45.304688 174.054688 L 57.585938 170.789062 C 57.953125 171.390625 58.480469 171.882812 59.109375 172.210938 C 57.652344 175.371094 56.636719 178.773438 56.140625 182.339844 C 52.34375 182.472656 49.308594 185.589844 49.308594 189.417969 C 49.308594 193.332031 52.480469 196.503906 56.394531 196.503906 C 60.308594 196.503906 63.480469 193.332031 63.480469 189.417969 C 63.480469 186.183594 61.3125 183.457031 58.347656 182.605469 C 58.84375 179.078125 59.882812 175.71875 61.375 172.617188 C 63.296875 172.382812 64.789062 170.746094 64.789062 168.757812 C 64.789062 168.261719 64.691406 167.789062 64.523438 167.355469 C 66.300781 164.902344 68.398438 162.699219 70.75 160.796875 " fill-opacity="1" fill-rule="nonzero"/></g><g clip-path="url(#116fef3825)"><path fill="#051d40" d="M 98.121094 238.046875 C 98.121094 239.910156 96.605469 241.425781 94.742188 241.425781 C 92.875 241.425781 91.359375 239.910156 91.359375 238.046875 C 91.359375 236.183594 92.875 234.664062 94.742188 234.664062 C 96.605469 234.664062 98.121094 236.183594 98.121094 238.046875 Z M 86.636719 220.550781 C 86.636719 221.675781 85.722656 222.589844 84.597656 222.589844 C 83.476562 222.589844 82.5625 221.675781 82.5625 220.550781 C 82.5625 219.429688 83.476562 218.515625 84.597656 218.515625 C 85.722656 218.515625 86.636719 219.429688 86.636719 220.550781 Z M 44.132812 206.191406 C 42.808594 206.191406 41.734375 205.117188 41.734375 203.792969 C 41.734375 202.46875 42.808594 201.394531 44.132812 201.394531 C 45.453125 201.394531 46.53125 202.46875 46.53125 203.792969 C 46.53125 205.117188 45.453125 206.191406 44.132812 206.191406 Z M 62.390625 208.96875 C 62.390625 207.648438 63.464844 206.570312 64.789062 206.570312 C 66.109375 206.570312 67.1875 207.648438 67.1875 208.96875 C 67.1875 210.292969 66.109375 211.367188 64.789062 211.367188 C 63.464844 211.367188 62.390625 210.292969 62.390625 208.96875 Z M 114.699219 234.933594 C 114.109375 234.421875 113.605469 233.8125 113.210938 233.132812 C 109.566406 234.816406 105.710938 236.070312 101.722656 236.847656 C 101.152344 233.503906 98.246094 230.960938 94.742188 230.960938 C 93.84375 230.960938 92.984375 231.128906 92.191406 231.433594 L 87.429688 223.214844 C 88.085938 222.519531 88.488281 221.582031 88.488281 220.550781 C 88.488281 218.402344 86.746094 216.660156 84.597656 216.660156 C 82.652344 216.660156 81.042969 218.09375 80.757812 219.960938 L 63.175781 222.382812 C 62.292969 219.476562 59.59375 217.355469 56.394531 217.355469 C 54.976562 217.355469 53.660156 217.773438 52.554688 218.488281 C 50.128906 215.410156 48.058594 212.042969 46.398438 208.449219 C 47.421875 207.949219 48.257812 207.121094 48.765625 206.101562 L 59.613281 208.820312 C 59.613281 208.871094 59.609375 208.917969 59.609375 208.96875 C 59.609375 211.828125 61.929688 214.148438 64.789062 214.148438 C 67.648438 214.148438 69.964844 211.828125 69.964844 208.96875 C 69.964844 206.109375 67.648438 203.792969 64.789062 203.792969 C 64.539062 203.792969 64.292969 203.8125 64.050781 203.84375 L 61.9375 198.222656 L 59.855469 199.003906 L 61.96875 204.628906 C 61.195312 205.128906 60.566406 205.832031 60.152344 206.660156 L 49.304688 203.945312 C 49.308594 203.894531 49.308594 203.84375 49.308594 203.792969 C 49.308594 200.933594 46.992188 198.613281 44.132812 198.613281 C 41.273438 198.613281 38.953125 200.933594 38.953125 203.792969 C 38.953125 206.652344 41.273438 208.96875 44.132812 208.96875 C 44.140625 208.96875 44.152344 208.96875 44.160156 208.96875 C 45.925781 212.882812 48.167969 216.589844 50.875 220 C 49.898438 221.214844 49.308594 222.761719 49.308594 224.441406 C 49.308594 228.355469 52.480469 231.527344 56.394531 231.527344 C 58.617188 231.527344 60.597656 230.503906 61.898438 228.90625 L 70.535156 233.898438 C 70.46875 234.1875 70.425781 234.488281 70.425781 234.796875 C 70.425781 236.945312 72.167969 238.6875 74.316406 238.6875 C 76.464844 238.6875 78.207031 236.945312 78.207031 234.796875 C 78.207031 232.648438 76.464844 230.90625 74.316406 230.90625 C 73.285156 230.90625 72.347656 231.3125 71.648438 231.972656 L 63.011719 226.980469 C 63.296875 226.234375 63.460938 225.429688 63.476562 224.585938 L 81.0625 222.160156 C 81.671875 223.507812 83.023438 224.441406 84.597656 224.441406 C 84.910156 224.441406 85.214844 224.402344 85.503906 224.332031 L 90.269531 232.550781 C 88.789062 233.753906 87.808594 235.546875 87.671875 237.570312 C 85.007812 237.332031 82.402344 236.886719 79.875 236.25 C 79.675781 237.003906 79.328125 237.699219 78.863281 238.300781 C 81.796875 239.0625 84.8125 239.574219 87.878906 239.820312 C 88.667969 242.875 91.441406 245.132812 94.742188 245.132812 C 98.289062 245.132812 101.230469 242.519531 101.746094 239.113281 C 106.230469 238.289062 110.578125 236.886719 114.699219 234.933594 " fill-opacity="1" fill-rule="nonzero"/></g><g fill="#051d40" fill-opacity="1"><g transform="translate(122.25783, 198.47725)"><g><path d="M 13.46875 -25.203125 C 16.6875 -25.203125 19.171875 -24.441406 20.921875 -22.921875 C 22.671875 -21.398438 23.546875 -19.242188 23.546875 -16.453125 C 23.546875 -13.523438 22.664062 -11.25 20.90625 -9.625 C 19.144531 -8.007812 16.664062 -7.203125 13.46875 -7.203125 L 8.46875 -7.203125 L 8.46875 0 L 2.765625 0 L 2.765625 -25.203125 Z M 13.1875 -11.953125 C 14.789062 -11.953125 16.019531 -12.316406 16.875 -13.046875 C 17.726562 -13.785156 18.15625 -14.863281 18.15625 -16.28125 C 18.15625 -17.675781 17.726562 -18.726562 16.875 -19.4375 C 16.019531 -20.144531 14.789062 -20.5 13.1875 -20.5 L 8.46875 -20.5 L 8.46875 -11.953125 Z M 13.1875 -11.953125 "/></g></g></g><g fill="#051d40" fill-opacity="1"><g transform="translate(150.281699, 198.47725)"><g><path d="M 0.28125 -20.390625 L 0.28125 -25.203125 L 21.359375 -25.203125 L 21.359375 -20.390625 L 13.65625 -20.390625 L 13.65625 0 L 7.953125 0 L 7.953125 -20.390625 Z M 0.28125 -20.390625 "/></g></g></g><g fill="#051d40" fill-opacity="1"><g transform="translate(175.53208, 198.47725)"><g><path d="M 2.765625 0 L 2.765625 -25.203125 L 8.46875 -25.203125 L 8.46875 0 Z M 2.765625 0 "/></g></g></g><g fill="#ff4900" fill-opacity="1"><g transform="translate(194.405379, 236.014797)"><g><path d="M 2.078125 0 L 2.078125 -18.90625 L 6.34375 -18.90625 L 6.34375 0 Z M 2.078125 0 "/></g></g></g><g fill="#ff4900" fill-opacity="1"><g transform="translate(205.565054, 236.014797)"><g><path d="M 15.15625 -6.703125 L 15.15625 -18.90625 L 19.203125 -18.90625 L 19.203125 0 L 15.3125 0 L 6.15625 -12.15625 L 6.15625 0 L 2.078125 0 L 2.078125 -18.90625 L 5.96875 -18.90625 Z M 15.15625 -6.703125 "/></g></g></g><g fill="#ff4900" fill-opacity="1"><g transform="translate(229.559722, 236.014797)"><g><path d="M 14.53125 -13.640625 C 13.5625 -14.234375 12.53125 -14.707031 11.4375 -15.0625 C 10.351562 -15.414062 9.421875 -15.59375 8.640625 -15.59375 C 7.898438 -15.59375 7.3125 -15.457031 6.875 -15.1875 C 6.445312 -14.914062 6.234375 -14.519531 6.234375 -14 C 6.234375 -13.332031 6.546875 -12.820312 7.171875 -12.46875 C 7.796875 -12.113281 8.753906 -11.75 10.046875 -11.375 C 11.347656 -11 12.414062 -10.617188 13.25 -10.234375 C 14.082031 -9.859375 14.796875 -9.289062 15.390625 -8.53125 C 15.992188 -7.78125 16.296875 -6.78125 16.296875 -5.53125 C 16.296875 -4.332031 15.972656 -3.296875 15.328125 -2.421875 C 14.691406 -1.546875 13.8125 -0.878906 12.6875 -0.421875 C 11.570312 0.0234375 10.304688 0.25 8.890625 0.25 C 7.359375 0.25 5.851562 -0.0195312 4.375 -0.5625 C 2.894531 -1.101562 1.617188 -1.84375 0.546875 -2.78125 L 2.25 -6.265625 C 3.195312 -5.398438 4.289062 -4.707031 5.53125 -4.1875 C 6.78125 -3.664062 7.914062 -3.40625 8.9375 -3.40625 C 9.820312 -3.40625 10.507812 -3.566406 11 -3.890625 C 11.5 -4.210938 11.75 -4.679688 11.75 -5.296875 C 11.75 -5.785156 11.582031 -6.1875 11.25 -6.5 C 10.914062 -6.8125 10.492188 -7.066406 9.984375 -7.265625 C 9.472656 -7.460938 8.765625 -7.6875 7.859375 -7.9375 C 6.566406 -8.300781 5.507812 -8.660156 4.6875 -9.015625 C 3.863281 -9.378906 3.15625 -9.929688 2.5625 -10.671875 C 1.96875 -11.410156 1.671875 -12.390625 1.671875 -13.609375 C 1.671875 -14.742188 1.976562 -15.738281 2.59375 -16.59375 C 3.207031 -17.457031 4.0625 -18.117188 5.15625 -18.578125 C 6.257812 -19.035156 7.539062 -19.265625 9 -19.265625 C 10.289062 -19.265625 11.566406 -19.070312 12.828125 -18.6875 C 14.085938 -18.3125 15.207031 -17.8125 16.1875 -17.1875 Z M 14.53125 -13.640625 "/></g></g></g><g fill="#ff4900" fill-opacity="1"><g transform="translate(249.474201, 236.014797)"><g><path d="M 2.078125 0 L 2.078125 -18.90625 L 6.34375 -18.90625 L 6.34375 0 Z M 2.078125 0 "/></g></g></g><g fill="#ff4900" fill-opacity="1"><g transform="translate(260.633873, 236.014797)"><g><path d="M 14.78125 -9.53125 L 18.484375 -9.53125 L 18.484375 -2.1875 C 17.472656 -1.445312 16.265625 -0.847656 14.859375 -0.390625 C 13.453125 0.0664062 12.101562 0.296875 10.8125 0.296875 C 8.914062 0.296875 7.203125 -0.128906 5.671875 -0.984375 C 4.140625 -1.835938 2.929688 -3.007812 2.046875 -4.5 C 1.171875 -5.988281 0.734375 -7.648438 0.734375 -9.484375 C 0.734375 -11.304688 1.179688 -12.957031 2.078125 -14.4375 C 2.984375 -15.925781 4.222656 -17.09375 5.796875 -17.9375 C 7.367188 -18.78125 9.117188 -19.203125 11.046875 -19.203125 C 12.453125 -19.203125 13.828125 -18.945312 15.171875 -18.4375 C 16.515625 -17.9375 17.671875 -17.257812 18.640625 -16.40625 L 16.234375 -13.34375 C 15.535156 -14.007812 14.722656 -14.53125 13.796875 -14.90625 C 12.878906 -15.289062 11.960938 -15.484375 11.046875 -15.484375 C 9.953125 -15.484375 8.945312 -15.21875 8.03125 -14.6875 C 7.125 -14.15625 6.410156 -13.429688 5.890625 -12.515625 C 5.367188 -11.609375 5.109375 -10.597656 5.109375 -9.484375 C 5.109375 -8.367188 5.375 -7.347656 5.90625 -6.421875 C 6.4375 -5.492188 7.15625 -4.765625 8.0625 -4.234375 C 8.96875 -3.703125 9.972656 -3.4375 11.078125 -3.4375 C 11.628906 -3.4375 12.226562 -3.53125 12.875 -3.71875 C 13.53125 -3.90625 14.164062 -4.160156 14.78125 -4.484375 Z M 14.78125 -9.53125 "/></g></g></g><g fill="#ff4900" fill-opacity="1"><g transform="translate(283.466631, 236.014797)"><g><path d="M 2.078125 0 L 2.078125 -18.90625 L 6.34375 -18.90625 L 6.34375 -11.015625 L 14.90625 -11.015625 L 14.90625 -18.90625 L 19.1875 -18.90625 L 19.1875 0 L 14.90625 0 L 14.90625 -7.453125 L 6.34375 -7.453125 L 6.34375 0 Z M 2.078125 0 "/></g></g></g><g fill="#ff4900" fill-opacity="1"><g transform="translate(307.434263, 236.014797)"><g><path d="M 0.21875 -15.296875 L 0.21875 -18.90625 L 16.015625 -18.90625 L 16.015625 -15.296875 L 10.234375 -15.296875 L 10.234375 0 L 5.96875 0 L 5.96875 -15.296875 Z M 0.21875 -15.296875 "/></g></g></g><g fill="#ff4900" fill-opacity="1"><g transform="translate(326.375974, 236.014797)"><g><path d="M 14.53125 -13.640625 C 13.5625 -14.234375 12.53125 -14.707031 11.4375 -15.0625 C 10.351562 -15.414062 9.421875 -15.59375 8.640625 -15.59375 C 7.898438 -15.59375 7.3125 -15.457031 6.875 -15.1875 C 6.445312 -14.914062 6.234375 -14.519531 6.234375 -14 C 6.234375 -13.332031 6.546875 -12.820312 7.171875 -12.46875 C 7.796875 -12.113281 8.753906 -11.75 10.046875 -11.375 C 11.347656 -11 12.414062 -10.617188 13.25 -10.234375 C 14.082031 -9.859375 14.796875 -9.289062 15.390625 -8.53125 C 15.992188 -7.78125 16.296875 -6.78125 16.296875 -5.53125 C 16.296875 -4.332031 15.972656 -3.296875 15.328125 -2.421875 C 14.691406 -1.546875 13.8125 -0.878906 12.6875 -0.421875 C 11.570312 0.0234375 10.304688 0.25 8.890625 0.25 C 7.359375 0.25 5.851562 -0.0195312 4.375 -0.5625 C 2.894531 -1.101562 1.617188 -1.84375 0.546875 -2.78125 L 2.25 -6.265625 C 3.195312 -5.398438 4.289062 -4.707031 5.53125 -4.1875 C 6.78125 -3.664062 7.914062 -3.40625 8.9375 -3.40625 C 9.820312 -3.40625 10.507812 -3.566406 11 -3.890625 C 11.5 -4.210938 11.75 -4.679688 11.75 -5.296875 C 11.75 -5.785156 11.582031 -6.1875 11.25 -6.5 C 10.914062 -6.8125 10.492188 -7.066406 9.984375 -7.265625 C 9.472656 -7.460938 8.765625 -7.6875 7.859375 -7.9375 C 6.566406 -8.300781 5.507812 -8.660156 4.6875 -9.015625 C 3.863281 -9.378906 3.15625 -9.929688 2.5625 -10.671875 C 1.96875 -11.410156 1.671875 -12.390625 1.671875 -13.609375 C 1.671875 -14.742188 1.976562 -15.738281 2.59375 -16.59375 C 3.207031 -17.457031 4.0625 -18.117188 5.15625 -18.578125 C 6.257812 -19.035156 7.539062 -19.265625 9 -19.265625 C 10.289062 -19.265625 11.566406 -19.070312 12.828125 -18.6875 C 14.085938 -18.3125 15.207031 -17.8125 16.1875 -17.1875 Z M 14.53125 -13.640625 "/></g></g></g><g fill="#051d40" fill-opacity="1"><g transform="translate(69.21988, 206.298067)"><g><path d="M 24.859375 -43.859375 C 29.179688 -43.859375 33.109375 -42.890625 36.640625 -40.953125 C 40.179688 -39.023438 42.96875 -36.363281 45 -32.96875 C 47.03125 -29.570312 48.046875 -25.800781 48.046875 -21.65625 C 48.046875 -17.5 47.03125 -13.710938 45 -10.296875 C 42.96875 -6.890625 40.179688 -4.207031 36.640625 -2.25 C 33.109375 -0.300781 29.179688 0.671875 24.859375 0.671875 C 20.546875 0.671875 16.617188 -0.300781 13.078125 -2.25 C 9.535156 -4.207031 6.75 -6.878906 4.71875 -10.265625 C 2.6875 -13.660156 1.671875 -17.457031 1.671875 -21.65625 C 1.671875 -25.800781 2.6875 -29.570312 4.71875 -32.96875 C 6.75 -36.363281 9.523438 -39.023438 13.046875 -40.953125 C 16.566406 -42.890625 20.503906 -43.859375 24.859375 -43.859375 Z M 24.984375 -35.34375 C 22.597656 -35.34375 20.375 -34.734375 18.3125 -33.515625 C 16.257812 -32.304688 14.632812 -30.65625 13.4375 -28.5625 C 12.25 -26.46875 11.65625 -24.164062 11.65625 -21.65625 C 11.65625 -19.101562 12.257812 -16.773438 13.46875 -14.671875 C 14.6875 -12.578125 16.3125 -10.910156 18.34375 -9.671875 C 20.382812 -8.441406 22.597656 -7.828125 24.984375 -7.828125 C 27.367188 -7.828125 29.554688 -8.429688 31.546875 -9.640625 C 33.546875 -10.859375 35.128906 -12.523438 36.296875 -14.640625 C 37.472656 -16.765625 38.0625 -19.101562 38.0625 -21.65625 C 38.0625 -24.164062 37.472656 -26.46875 36.296875 -28.5625 C 35.128906 -30.65625 33.546875 -32.304688 31.546875 -33.515625 C 29.554688 -34.734375 27.367188 -35.34375 24.984375 -35.34375 Z M 24.984375 -35.34375 "/></g></g></g><g fill="#051d40" fill-opacity="1"><g transform="translate(229.983136, 198.47725)"><g><path d="M 14.515625 -25.609375 C 17.035156 -25.609375 19.328125 -25.039062 21.390625 -23.90625 C 23.453125 -22.78125 25.078125 -21.226562 26.265625 -19.25 C 27.460938 -17.269531 28.0625 -15.066406 28.0625 -12.640625 C 28.0625 -10.210938 27.460938 -8.003906 26.265625 -6.015625 C 25.078125 -4.023438 23.453125 -2.457031 21.390625 -1.3125 C 19.328125 -0.175781 17.035156 0.390625 14.515625 0.390625 C 11.992188 0.390625 9.695312 -0.175781 7.625 -1.3125 C 5.5625 -2.457031 3.9375 -4.019531 2.75 -6 C 1.5625 -7.976562 0.96875 -10.191406 0.96875 -12.640625 C 0.96875 -15.066406 1.5625 -17.269531 2.75 -19.25 C 3.9375 -21.226562 5.554688 -22.78125 7.609375 -23.90625 C 9.671875 -25.039062 11.972656 -25.609375 14.515625 -25.609375 Z M 14.59375 -20.640625 C 13.195312 -20.640625 11.894531 -20.285156 10.6875 -19.578125 C 9.488281 -18.867188 8.539062 -17.898438 7.84375 -16.671875 C 7.15625 -15.453125 6.8125 -14.109375 6.8125 -12.640625 C 6.8125 -11.148438 7.164062 -9.789062 7.875 -8.5625 C 8.582031 -7.34375 9.53125 -6.375 10.71875 -5.65625 C 11.90625 -4.9375 13.195312 -4.578125 14.59375 -4.578125 C 15.976562 -4.578125 17.253906 -4.929688 18.421875 -5.640625 C 19.585938 -6.347656 20.507812 -7.316406 21.1875 -8.546875 C 21.875 -9.785156 22.21875 -11.148438 22.21875 -12.640625 C 22.21875 -14.109375 21.875 -15.453125 21.1875 -16.671875 C 20.507812 -17.898438 19.585938 -18.867188 18.421875 -19.578125 C 17.253906 -20.285156 15.976562 -20.640625 14.59375 -20.640625 Z M 14.59375 -20.640625 "/></g></g></g><g fill="#051d40" fill-opacity="1"><g transform="translate(262.617474, 198.47725)"><g><path d="M 24.703125 0 L 18.265625 0 L 14.265625 -7.203125 L 8.46875 -7.203125 L 8.46875 0 L 2.765625 0 L 2.765625 -25.203125 L 13.71875 -25.203125 C 17.007812 -25.203125 19.554688 -24.441406 21.359375 -22.921875 C 23.160156 -21.398438 24.0625 -19.242188 24.0625 -16.453125 C 24.0625 -14.515625 23.65625 -12.851562 22.84375 -11.46875 C 22.039062 -10.09375 20.875 -9.039062 19.34375 -8.3125 Z M 8.46875 -20.5 L 8.46875 -11.953125 L 13.71875 -11.953125 C 15.300781 -11.953125 16.519531 -12.316406 17.375 -13.046875 C 18.226562 -13.785156 18.65625 -14.863281 18.65625 -16.28125 C 18.65625 -17.675781 18.226562 -18.726562 17.375 -19.4375 C 16.519531 -20.144531 15.300781 -20.5 13.71875 -20.5 Z M 8.46875 -20.5 "/></g></g></g><g fill="#051d40" fill-opacity="1"><g transform="translate(292.298224, 198.47725)"><g><path d="M 2.765625 0 L 2.765625 -25.203125 L 21.96875 -25.203125 L 21.96875 -20.5 L 8.46875 -20.5 L 8.46875 -15.015625 L 20.59375 -15.015625 L 20.59375 -10.296875 L 8.46875 -10.296875 L 8.46875 -4.71875 L 22.359375 -4.71875 L 22.359375 0 Z M 2.765625 0 "/></g></g></g><g fill="#051d40" fill-opacity="1"><g transform="translate(191.621817, 205.23249)"><g><path d="M 30.765625 -25.328125 C 29.492188 -26.835938 28.003906 -28.023438 26.296875 -28.890625 C 24.597656 -29.753906 22.890625 -30.1875 21.171875 -30.1875 C 19.097656 -30.1875 17.203125 -29.675781 15.484375 -28.65625 C 13.765625 -27.632812 12.410156 -26.242188 11.421875 -24.484375 C 10.441406 -22.734375 9.953125 -20.785156 9.953125 -18.640625 C 9.953125 -16.503906 10.441406 -14.546875 11.421875 -12.765625 C 12.410156 -10.992188 13.765625 -9.585938 15.484375 -8.546875 C 17.203125 -7.515625 19.097656 -7 21.171875 -7 C 22.828125 -7 24.503906 -7.394531 26.203125 -8.1875 C 27.910156 -8.976562 29.429688 -10.039062 30.765625 -11.375 L 35.65625 -6.0625 C 33.6875 -4.019531 31.375 -2.398438 28.71875 -1.203125 C 26.070312 -0.015625 23.414062 0.578125 20.75 0.578125 C 17.132812 0.578125 13.851562 -0.253906 10.90625 -1.921875 C 7.957031 -3.585938 5.640625 -5.878906 3.953125 -8.796875 C 2.265625 -11.710938 1.421875 -14.960938 1.421875 -18.546875 C 1.421875 -22.085938 2.28125 -25.296875 4 -28.171875 C 5.71875 -31.054688 8.078125 -33.320312 11.078125 -34.96875 C 14.085938 -36.625 17.414062 -37.453125 21.0625 -37.453125 C 23.738281 -37.453125 26.375 -36.894531 28.96875 -35.78125 C 31.570312 -34.675781 33.785156 -33.175781 35.609375 -31.28125 Z M 30.765625 -25.328125 "/></g></g></g></svg>